<?xml version="1.0" standalone="no"?>
<!DOCTYPE svg PUBLIC "-//W3C//DTD SVG 20010904//EN"
 "http://www.w3.org/TR/2001/REC-SVG-20010904/DTD/svg10.dtd">
<svg version="1.0" xmlns="http://www.w3.org/2000/svg"
 width="600.000000pt" height="600.000000pt" viewBox="0 0 600.000000 600.000000"
 preserveAspectRatio="xMidYMid meet">
<metadata>
Created by potrace 1.10, written by Peter Selinger 2001-2011
</metadata>
<g transform="translate(0.000000,600.000000) scale(0.100000,-0.100000)"
fill="#000000" stroke="none">
<path d="M2765 5278 c-129 -14 -281 -46 -380 -80 -16 -5 -43 -14 -60 -18 -40
-11 -111 -38 -133 -49 -9 -5 -64 -32 -122 -61 -58 -28 -118 -60 -135 -70 -16
-10 -40 -25 -52 -32 -182 -108 -443 -352 -563 -526 -14 -21 -28 -38 -32 -40
-5 -2 -8 -7 -8 -12 0 -5 -18 -36 -40 -69 -22 -34 -63 -107 -91 -163 -28 -57
-55 -111 -60 -120 -16 -32 -66 -177 -92 -268 -100 -348 -100 -744 0 -1100 8
-30 22 -70 29 -88 8 -18 14 -41 14 -50 0 -10 7 -27 15 -38 8 -10 15 -25 15
-33 0 -27 97 -223 150 -306 11 -16 23 -37 27 -45 4 -8 46 -67 93 -130 95 -126
235 -271 345 -359 38 -31 72 -59 75 -62 32 -38 357 -217 475 -262 94 -35 123
-45 175 -60 67 -20 166 -41 280 -62 117 -21 483 -21 600 0 204 37 294 61 453
121 122 47 445 225 477 263 3 3 37 31 75 62 112 89 251 234 344 359 90 121
104 142 121 175 6 11 19 34 30 50 27 42 67 126 136 283 8 18 14 39 14 47 0 8
6 29 14 47 56 134 106 434 106 640 0 167 -36 427 -76 543 -8 23 -14 48 -14 57
0 10 -6 32 -14 50 -8 18 -22 53 -31 78 -42 113 -129 288 -185 371 -22 33 -40
64 -40 69 0 5 -3 10 -7 12 -5 2 -19 19 -33 40 -102 148 -324 365 -483 473
-118 80 -131 88 -264 154 -59 29 -116 57 -125 62 -23 12 -95 38 -133 49 -16 4
-43 13 -60 18 -225 77 -562 110 -830 80z m520 -324 c44 -9 98 -20 120 -25 22
-6 56 -14 75 -19 49 -11 90 -26 203 -74 30 -13 158 -76 202 -100 62 -35 174
-116 247 -180 173 -153 259 -258 395 -481 13 -21 44 -86 70 -145 9 -19 22 -47
30 -62 7 -14 13 -33 13 -42 0 -8 6 -30 14 -48 68 -160 107 -465 87 -689 -15
-163 -48 -327 -88 -434 -8 -22 -22 -58 -30 -80 -32 -84 -110 -233 -167 -320
-69 -103 -206 -266 -268 -318 -24 -19 -61 -51 -83 -71 -36 -34 -158 -120 -195
-139 -8 -4 -28 -16 -45 -26 -39 -25 -157 -83 -215 -106 -389 -152 -752 -171
-1150 -58 -123 35 -301 110 -385 164 -16 10 -37 22 -45 26 -38 18 -153 104
-237 176 -200 172 -384 433 -478 677 -9 25 -23 60 -31 78 -8 18 -14 40 -14 50
0 9 -6 34 -14 57 -23 65 -45 191 -57 328 -19 221 19 522 87 685 8 18 14 40 14
48 0 9 6 28 13 42 8 15 22 45 32 67 9 22 21 47 26 55 4 8 18 35 30 60 109 221
356 493 577 637 145 94 370 198 482 222 19 5 53 13 75 19 144 39 285 52 495
45 74 -2 171 -11 215 -19z"/>
<path d="M2140 4500 c-19 -10 -51 -32 -70 -50 -19 -17 -55 -48 -79 -68 -259
-217 -319 -274 -335 -312 -14 -36 -16 -108 -16 -597 0 -658 3 -694 77 -875 40
-98 126 -198 205 -240 126 -66 210 -78 559 -78 212 0 289 -3 302 -12 14 -11
16 -43 19 -239 4 -317 -20 -299 398 -299 259 0 295 2 323 18 18 9 36 22 42 28
5 6 30 26 55 44 25 19 52 41 61 49 19 19 100 87 145 121 94 72 165 139 181
170 17 33 18 92 18 1145 0 1226 4 1146 -64 1192 -34 23 -38 23 -333 23 -329 0
-319 2 -399 -65 -19 -16 -57 -48 -84 -70 -26 -22 -53 -45 -60 -52 -6 -6 -41
-35 -76 -64 -35 -28 -69 -57 -74 -63 -6 -6 -20 -16 -32 -23 -30 -17 -33 -4
-33 140 -1 134 -6 149 -68 181 -27 14 -73 16 -329 16 -271 -1 -301 -3 -333
-20z m650 -31 c19 -12 38 -27 42 -33 4 -6 8 -228 8 -493 0 -416 2 -488 16
-522 24 -61 55 -71 226 -71 78 0 150 5 158 10 13 8 16 83 20 545 4 461 7 537
20 546 58 38 63 39 344 39 258 0 278 -1 315 -20 28 -15 40 -29 45 -52 8 -40 8
-2186 0 -2227 -4 -20 -18 -38 -40 -51 -31 -20 -45 -21 -333 -18 l-299 3 -26
24 -26 24 0 238 c0 225 -1 239 -19 249 -12 6 -135 10 -328 10 -425 0 -522 18
-650 118 -81 63 -124 145 -149 287 -20 116 -21 1300 0 1348 26 63 47 67 361
67 268 0 282 -1 315 -21z"/>
<path d="M2460 4173 c-1 -5 -1 -203 0 -442 0 -436 6 -535 37 -572 7 -8 13 -20
13 -25 0 -16 59 -72 93 -90 85 -43 125 -47 572 -53 l430 -6 3 -278 c2 -244 4
-278 18 -275 8 2 15 6 15 11 -1 4 -1 396 -1 872 0 762 -2 865 -15 865 -13 0
-15 -69 -15 -563 0 -425 -3 -566 -12 -575 -9 -9 -116 -12 -420 -12 -410 0
-462 4 -538 38 -40 18 -100 70 -100 87 0 6 -6 17 -12 23 -30 30 -37 128 -37
565 -1 381 -3 437 -16 437 -8 0 -15 -3 -15 -7z"/>
</g>
</svg>
