<?xml version="1.0" standalone="no"?>
<!DOCTYPE svg PUBLIC "-//W3C//DTD SVG 20010904//EN"
 "http://www.w3.org/TR/2001/REC-SVG-20010904/DTD/svg10.dtd">
<svg version="1.0" xmlns="http://www.w3.org/2000/svg"
 width="200.000000pt" height="200.000000pt" viewBox="0 0 200.000000 200.000000"
 preserveAspectRatio="xMidYMid meet">
<metadata>
Created by potrace 1.10, written by Peter Selinger 2001-2011
</metadata>
<g transform="translate(0.000000,200.000000) scale(0.100000,-0.100000)"
fill="#000000" stroke="none">
<path d="M808 1790 c-238 -59 -448 -233 -549 -456 -115 -254 -85 -574 75 -797
160 -224 396 -347 666 -347 270 0 506 123 666 347 193 269 193 657 0 926 -50
71 -149 168 -219 216 -172 117 -430 162 -639 111z m390 -31 c216 -54 408 -210
507 -412 106 -216 106 -478 0 -694 -99 -202 -288 -355 -510 -414 -111 -30
-279 -30 -390 0 -278 73 -493 288 -566 566 -30 111 -30 279 0 390 112 424 534
672 959 564z"/>
<path d="M950 1575 l0 -75 43 0 c24 0 48 5 55 12 7 7 12 38 12 69 0 64 -6 69
-71 69 l-39 0 0 -75z m70 0 c0 -24 -5 -35 -15 -35 -10 0 -15 11 -15 35 0 24 5
35 15 35 10 0 15 -11 15 -35z"/>
<path d="M1226 1593 c-4 -9 -1 -20 5 -24 18 -11 -4 -65 -25 -61 -10 2 -16 -4
-16 -16 0 -20 64 -57 81 -47 12 8 12 32 -1 37 -7 2 -7 13 0 35 7 19 17 30 24
27 8 -3 16 2 19 10 5 11 -5 22 -33 36 -47 24 -46 24 -54 3z"/>
<path d="M711 1587 c-20 -10 -23 -16 -18 -57 7 -66 23 -101 42 -93 10 3 15 13
12 25 -7 25 22 37 35 15 11 -20 38 -11 38 12 0 24 -57 111 -72 110 -7 0 -24
-5 -37 -12z m49 -58 c0 -5 -7 -9 -15 -9 -9 0 -15 9 -15 21 0 18 2 19 15 9 8
-7 15 -16 15 -21z"/>
<path d="M1422 1420 c-36 -42 -42 -53 -31 -66 10 -13 16 -11 39 11 l27 26 -5
-28 c-2 -15 -8 -33 -13 -38 -4 -6 -2 -18 6 -28 11 -16 16 -12 59 37 41 48 44
55 30 67 -14 11 -18 10 -29 -5 -12 -16 -14 -14 -17 25 -2 23 -7 44 -13 46 -5
2 -30 -20 -53 -47z"/>
<path d="M472 1401 l-31 -38 48 -47 c25 -25 49 -46 53 -46 13 0 18 33 7 46 -6
8 -8 21 -5 30 6 15 8 15 26 -1 16 -15 22 -16 35 -5 14 12 13 16 -6 37 -13 12
-26 23 -31 23 -4 0 -17 9 -28 20 -27 27 -32 26 -68 -19z m53 -20 c7 -12 -12
-24 -25 -16 -11 7 -4 25 10 25 5 0 11 -4 15 -9z m-3 -36 c10 7 11 5 0 -6 -10
-11 -16 -9 -35 11 -22 24 -22 24 0 6 12 -10 27 -15 35 -11z"/>
<path d="M803 1214 l-53 -46 0 -144 c0 -153 6 -179 50 -219 17 -16 36 -19 103
-20 l82 0 5 -55 5 -55 76 -3 76 -3 57 46 56 46 0 238 c0 171 -3 240 -12 249
-7 7 -41 12 -83 12 -68 0 -72 -1 -105 -35 -19 -19 -37 -35 -41 -35 -4 0 -9 15
-11 33 l-3 32 -75 2 -75 3 -52 -46z m197 -84 l5 -115 42 -3 42 -3 3 118 3 118
70 0 70 0 3 -247 2 -248 -75 0 -75 0 0 60 0 60 -93 0 c-107 0 -131 11 -147 68
-11 40 -14 252 -4 290 6 21 11 23 78 20 l71 -3 5 -115z m-142 -272 l26 -28
-26 0 c-36 0 -60 32 -65 87 l-4 48 22 -40 c12 -22 33 -52 47 -67z m186 -54 c3
-9 6 -22 6 -31 0 -8 7 -21 15 -29 21 -21 19 -34 -5 -34 -13 0 -21 9 -25 28 -3
15 -12 39 -20 55 -13 25 -13 27 4 27 11 0 22 -7 25 -16z"/>
<path d="M922 1085 c-1 -60 2 -115 6 -121 16 -25 55 -34 141 -34 l90 0 4 -62
c2 -35 3 25 3 132 0 109 -2 140 -3 70 l-4 -125 -102 3 c-56 2 -106 8 -112 13
-5 5 -13 60 -16 122 l-5 112 -2 -110z"/>
<path d="M1578 1190 c-21 -11 -38 -27 -38 -35 0 -17 30 -95 37 -95 2 0 17 7
34 15 24 13 28 19 19 34 -6 13 -17 17 -30 14 -30 -8 -25 15 7 30 19 8 27 9 30
1 9 -27 29 -43 41 -35 11 7 10 15 -5 47 -21 46 -43 51 -95 24z"/>
<path d="M343 1183 c-3 -10 -12 -33 -19 -52 -8 -18 -11 -37 -8 -42 9 -15 34
-10 34 6 0 19 11 19 55 -2 31 -15 37 -15 45 -3 15 23 7 32 -38 49 -36 13 -41
18 -36 38 5 17 2 23 -10 23 -9 0 -19 -8 -23 -17z"/>
<path d="M730 490 c0 -63 2 -70 20 -70 15 0 20 7 20 26 0 21 4 24 20 19 16 -5
20 -2 20 14 0 14 -6 21 -20 21 -11 0 -20 5 -20 10 0 6 14 10 30 10 23 0 30 4
30 20 0 17 -7 20 -50 20 l-50 0 0 -70z"/>
<path d="M943 553 c-9 -3 -13 -26 -13 -64 0 -53 2 -59 24 -65 13 -3 37 -4 52
-2 28 3 29 5 32 62 2 41 -1 62 -10 67 -14 9 -65 11 -85 2z m57 -68 c0 -24 -5
-35 -15 -35 -10 0 -15 11 -15 35 0 24 5 35 15 35 10 0 15 -11 15 -35z"/>
<path d="M1150 490 c0 -68 1 -70 26 -70 20 0 25 4 22 22 -2 15 3 24 15 26 13
3 17 -3 17 -22 0 -19 5 -26 20 -26 16 0 20 7 20 35 0 19 -4 35 -9 35 -5 0 -7
9 -4 20 8 32 -15 50 -63 50 l-44 0 0 -70z m70 19 c0 -5 -7 -9 -15 -9 -15 0
-20 12 -9 23 8 8 24 -1 24 -14z"/>
</g>
</svg>
